<mxfile host="app.diagrams.net" modified="2023-03-31T11:32:01.666Z" agent="Mozilla/5.0 (X11; Ubuntu; Linux x86_64; rv:109.0) Gecko/20100101 Firefox/111.0" etag="PpgRwLWmHjNGpFBXE5O7" version="21.1.1">
  <diagram name="PÃ¡gina-1" id="9bUULZ5fY3JvXaYJBgqP">
    <mxGraphModel dx="880" dy="413" grid="1" gridSize="10" guides="1" tooltips="1" connect="1" arrows="1" fold="1" page="1" pageScale="1" pageWidth="827" pageHeight="1169" math="0" shadow="0">
      <root>
        <mxCell id="0" />
        <mxCell id="1" parent="0" />
        <mxCell id="-CQPZJqgbFWsAQTNGpAb-19" value="" style="rounded=0;whiteSpace=wrap;html=1;" vertex="1" parent="1">
          <mxGeometry x="210" y="80" width="350" height="1050" as="geometry" />
        </mxCell>
        <mxCell id="-CQPZJqgbFWsAQTNGpAb-20" value="inasistencia al trabajo " style="ellipse;whiteSpace=wrap;html=1;" vertex="1" parent="1">
          <mxGeometry x="265" y="100" width="240" height="120" as="geometry" />
        </mxCell>
        <mxCell id="-CQPZJqgbFWsAQTNGpAb-21" value="consultar inasistencias al contador" style="ellipse;whiteSpace=wrap;html=1;" vertex="1" parent="1">
          <mxGeometry x="275" y="800" width="240" height="120" as="geometry" />
        </mxCell>
        <mxCell id="-CQPZJqgbFWsAQTNGpAb-22" value="liquida sueldo" style="ellipse;whiteSpace=wrap;html=1;" vertex="1" parent="1">
          <mxGeometry x="265" y="650" width="240" height="120" as="geometry" />
        </mxCell>
        <mxCell id="-CQPZJqgbFWsAQTNGpAb-23" value="registrar falta" style="ellipse;whiteSpace=wrap;html=1;" vertex="1" parent="1">
          <mxGeometry x="265" y="500" width="240" height="120" as="geometry" />
        </mxCell>
        <mxCell id="-CQPZJqgbFWsAQTNGpAb-24" value="dar listado de faltas al empleado" style="ellipse;whiteSpace=wrap;html=1;" vertex="1" parent="1">
          <mxGeometry x="265" y="940" width="240" height="120" as="geometry" />
        </mxCell>
        <mxCell id="-CQPZJqgbFWsAQTNGpAb-25" value="informa al contador" style="ellipse;whiteSpace=wrap;html=1;" vertex="1" parent="1">
          <mxGeometry x="265" y="360" width="240" height="120" as="geometry" />
        </mxCell>
        <mxCell id="-CQPZJqgbFWsAQTNGpAb-33" style="edgeStyle=orthogonalEdgeStyle;rounded=0;orthogonalLoop=1;jettySize=auto;html=1;exitX=0.5;exitY=0.5;exitDx=0;exitDy=0;exitPerimeter=0;entryX=0;entryY=0.5;entryDx=0;entryDy=0;" edge="1" parent="1" source="-CQPZJqgbFWsAQTNGpAb-26" target="-CQPZJqgbFWsAQTNGpAb-20">
          <mxGeometry relative="1" as="geometry" />
        </mxCell>
        <mxCell id="-CQPZJqgbFWsAQTNGpAb-34" style="edgeStyle=orthogonalEdgeStyle;rounded=0;orthogonalLoop=1;jettySize=auto;html=1;exitX=0.5;exitY=0.5;exitDx=0;exitDy=0;exitPerimeter=0;entryX=0;entryY=0.5;entryDx=0;entryDy=0;" edge="1" parent="1" source="-CQPZJqgbFWsAQTNGpAb-26" target="-CQPZJqgbFWsAQTNGpAb-21">
          <mxGeometry relative="1" as="geometry">
            <mxPoint x="150" y="764" as="targetPoint" />
            <Array as="points">
              <mxPoint x="130" y="170" />
              <mxPoint x="130" y="860" />
            </Array>
          </mxGeometry>
        </mxCell>
        <mxCell id="-CQPZJqgbFWsAQTNGpAb-37" style="edgeStyle=orthogonalEdgeStyle;rounded=0;orthogonalLoop=1;jettySize=auto;html=1;exitX=0.5;exitY=0.5;exitDx=0;exitDy=0;exitPerimeter=0;entryX=0;entryY=0.5;entryDx=0;entryDy=0;" edge="1" parent="1" source="-CQPZJqgbFWsAQTNGpAb-26" target="-CQPZJqgbFWsAQTNGpAb-36">
          <mxGeometry relative="1" as="geometry" />
        </mxCell>
        <mxCell id="-CQPZJqgbFWsAQTNGpAb-26" value="empleado" style="shape=umlActor;verticalLabelPosition=bottom;verticalAlign=top;html=1;outlineConnect=0;" vertex="1" parent="1">
          <mxGeometry x="80" y="140" width="30" height="60" as="geometry" />
        </mxCell>
        <mxCell id="-CQPZJqgbFWsAQTNGpAb-28" style="edgeStyle=orthogonalEdgeStyle;rounded=0;orthogonalLoop=1;jettySize=auto;html=1;exitX=0.5;exitY=0.5;exitDx=0;exitDy=0;exitPerimeter=0;" edge="1" parent="1" source="-CQPZJqgbFWsAQTNGpAb-27" target="-CQPZJqgbFWsAQTNGpAb-25">
          <mxGeometry relative="1" as="geometry">
            <Array as="points">
              <mxPoint x="600" y="320" />
              <mxPoint x="600" y="410" />
            </Array>
          </mxGeometry>
        </mxCell>
        <mxCell id="-CQPZJqgbFWsAQTNGpAb-27" value="jefe de seccion" style="shape=umlActor;verticalLabelPosition=bottom;verticalAlign=top;html=1;outlineConnect=0;" vertex="1" parent="1">
          <mxGeometry x="660" y="290" width="30" height="60" as="geometry" />
        </mxCell>
        <mxCell id="-CQPZJqgbFWsAQTNGpAb-31" style="edgeStyle=orthogonalEdgeStyle;rounded=0;orthogonalLoop=1;jettySize=auto;html=1;exitX=0.5;exitY=0.5;exitDx=0;exitDy=0;exitPerimeter=0;entryX=1;entryY=0.5;entryDx=0;entryDy=0;" edge="1" parent="1" source="-CQPZJqgbFWsAQTNGpAb-29" target="-CQPZJqgbFWsAQTNGpAb-23">
          <mxGeometry relative="1" as="geometry" />
        </mxCell>
        <mxCell id="-CQPZJqgbFWsAQTNGpAb-32" style="edgeStyle=orthogonalEdgeStyle;rounded=0;orthogonalLoop=1;jettySize=auto;html=1;exitX=0.5;exitY=0.5;exitDx=0;exitDy=0;exitPerimeter=0;entryX=1;entryY=0.5;entryDx=0;entryDy=0;" edge="1" parent="1" source="-CQPZJqgbFWsAQTNGpAb-29" target="-CQPZJqgbFWsAQTNGpAb-22">
          <mxGeometry relative="1" as="geometry" />
        </mxCell>
        <mxCell id="-CQPZJqgbFWsAQTNGpAb-35" style="edgeStyle=orthogonalEdgeStyle;rounded=0;orthogonalLoop=1;jettySize=auto;html=1;exitX=0.5;exitY=0.5;exitDx=0;exitDy=0;exitPerimeter=0;entryX=1;entryY=0.5;entryDx=0;entryDy=0;" edge="1" parent="1" source="-CQPZJqgbFWsAQTNGpAb-29" target="-CQPZJqgbFWsAQTNGpAb-24">
          <mxGeometry relative="1" as="geometry" />
        </mxCell>
        <mxCell id="-CQPZJqgbFWsAQTNGpAb-29" value="contador" style="shape=umlActor;verticalLabelPosition=bottom;verticalAlign=top;html=1;outlineConnect=0;" vertex="1" parent="1">
          <mxGeometry x="665" y="450" width="30" height="60" as="geometry" />
        </mxCell>
        <mxCell id="-CQPZJqgbFWsAQTNGpAb-36" value="&lt;div&gt;informar el motivo de la falta&lt;/div&gt;" style="ellipse;whiteSpace=wrap;html=1;" vertex="1" parent="1">
          <mxGeometry x="265" y="230" width="240" height="120" as="geometry" />
        </mxCell>
      </root>
    </mxGraphModel>
  </diagram>
</mxfile>
